<mxfile host="app.diagrams.net" agent="Mozilla/5.0 (Windows NT 10.0; Win64; x64) AppleWebKit/537.36 (KHTML, like Gecko) Chrome/134.0.0.0 Safari/537.36 Edg/134.0.0.0" version="26.1.1">
  <diagram id="M13nzgHDiBsrt1ZgYOBN" name="Страница 1">
    <mxGraphModel dx="1417" dy="738" grid="1" gridSize="10" guides="1" tooltips="1" connect="1" arrows="1" fold="1" page="1" pageScale="1" pageWidth="827" pageHeight="1169" math="0" shadow="0">
      <root>
        <mxCell id="0" />
        <mxCell id="1" parent="0" />
        <mxCell id="l2btpocBM2kwRpMdsqXY-9" value="" style="rounded=0;whiteSpace=wrap;html=1;fillColor=none;" parent="1" vertex="1">
          <mxGeometry x="180" y="180" width="520" height="850" as="geometry" />
        </mxCell>
        <mxCell id="fY_PwHqfxWm9hgMFCMMJ-108" value="Электронная библиотека" style="text;html=1;strokeColor=none;fillColor=none;align=center;verticalAlign=middle;whiteSpace=wrap;rounded=0;shadow=0;glass=0;sketch=0;strokeWidth=1;movable=1;resizable=1;rotatable=1;deletable=1;editable=1;connectable=1;locked=0;" parent="1" vertex="1">
          <mxGeometry x="380" y="140" width="107" height="30" as="geometry" />
        </mxCell>
        <mxCell id="l2btpocBM2kwRpMdsqXY-12" style="rounded=0;orthogonalLoop=1;jettySize=auto;html=1;exitX=1;exitY=0.3333333333333333;exitDx=0;exitDy=0;exitPerimeter=0;entryX=0;entryY=0.5;entryDx=0;entryDy=0;endArrow=none;endFill=0;" parent="1" source="fY_PwHqfxWm9hgMFCMMJ-111" target="l2btpocBM2kwRpMdsqXY-6" edge="1">
          <mxGeometry relative="1" as="geometry" />
        </mxCell>
        <mxCell id="fY_PwHqfxWm9hgMFCMMJ-110" value="Администратор" style="shape=umlActor;verticalLabelPosition=bottom;verticalAlign=top;html=1;outlineConnect=0;shadow=0;glass=0;sketch=0;strokeColor=default;strokeWidth=1;fillColor=default;gradientColor=none;" parent="1" vertex="1">
          <mxGeometry x="100" y="390" width="30" height="60" as="geometry" />
        </mxCell>
        <mxCell id="fY_PwHqfxWm9hgMFCMMJ-111" value="Клиент" style="shape=umlActor;verticalLabelPosition=bottom;verticalAlign=top;html=1;outlineConnect=0;shadow=0;glass=0;sketch=0;strokeColor=default;strokeWidth=1;fillColor=default;gradientColor=none;" parent="1" vertex="1">
          <mxGeometry x="120" y="665" width="30" height="60" as="geometry" />
        </mxCell>
        <mxCell id="fY_PwHqfxWm9hgMFCMMJ-113" value="Просмотр личного кабинета" style="ellipse;whiteSpace=wrap;html=1;shadow=0;glass=0;sketch=0;strokeColor=default;strokeWidth=1;fillColor=default;gradientColor=none;" parent="1" vertex="1">
          <mxGeometry x="250" y="810" width="120.5" height="65" as="geometry" />
        </mxCell>
        <mxCell id="fY_PwHqfxWm9hgMFCMMJ-121" value="Запросить статистику" style="ellipse;whiteSpace=wrap;html=1;shadow=0;glass=0;sketch=0;strokeColor=default;strokeWidth=1;fillColor=default;gradientColor=none;" parent="1" vertex="1">
          <mxGeometry x="319" y="210" width="121" height="60" as="geometry" />
        </mxCell>
        <mxCell id="fY_PwHqfxWm9hgMFCMMJ-122" value="" style="endArrow=none;html=1;strokeWidth=1;curved=1;exitX=1;exitY=0.3333333333333333;exitDx=0;exitDy=0;exitPerimeter=0;entryX=0;entryY=0.5;entryDx=0;entryDy=0;" parent="1" source="fY_PwHqfxWm9hgMFCMMJ-110" target="fY_PwHqfxWm9hgMFCMMJ-121" edge="1">
          <mxGeometry width="50" height="50" relative="1" as="geometry">
            <mxPoint x="200" y="440" as="sourcePoint" />
            <mxPoint x="239.9999999999991" y="440" as="targetPoint" />
          </mxGeometry>
        </mxCell>
        <mxCell id="fY_PwHqfxWm9hgMFCMMJ-130" value="Просмотр эл. каталога" style="ellipse;whiteSpace=wrap;html=1;shadow=0;glass=0;sketch=0;strokeColor=default;strokeWidth=1;fillColor=default;gradientColor=none;" parent="1" vertex="1">
          <mxGeometry x="190" y="500" width="120" height="60" as="geometry" />
        </mxCell>
        <mxCell id="fY_PwHqfxWm9hgMFCMMJ-131" value="" style="endArrow=none;html=1;strokeWidth=1;curved=1;" parent="1" target="fY_PwHqfxWm9hgMFCMMJ-130" edge="1">
          <mxGeometry width="50" height="50" relative="1" as="geometry">
            <mxPoint x="130" y="410" as="sourcePoint" />
            <mxPoint x="200.00000000000068" y="420" as="targetPoint" />
          </mxGeometry>
        </mxCell>
        <mxCell id="fY_PwHqfxWm9hgMFCMMJ-132" value="" style="endArrow=none;html=1;strokeWidth=1;curved=1;exitX=1;exitY=0.3333333333333333;exitDx=0;exitDy=0;exitPerimeter=0;entryX=0;entryY=1;entryDx=0;entryDy=0;" parent="1" source="fY_PwHqfxWm9hgMFCMMJ-111" target="fY_PwHqfxWm9hgMFCMMJ-130" edge="1">
          <mxGeometry width="50" height="50" relative="1" as="geometry">
            <mxPoint x="160" y="695" as="sourcePoint" />
            <mxPoint x="200.00000000000068" y="695" as="targetPoint" />
          </mxGeometry>
        </mxCell>
        <mxCell id="l2btpocBM2kwRpMdsqXY-6" value="Просмотр книги" style="ellipse;whiteSpace=wrap;html=1;shadow=0;glass=0;sketch=0;strokeColor=default;strokeWidth=1;fillColor=default;gradientColor=none;" parent="1" vertex="1">
          <mxGeometry x="390" y="650" width="120" height="60" as="geometry" />
        </mxCell>
        <mxCell id="w9W89zgJOpFOfbTKTyqD-2" value="" style="endArrow=none;html=1;strokeWidth=1;curved=1;exitX=1;exitY=0.3333333333333333;exitDx=0;exitDy=0;exitPerimeter=0;entryX=0;entryY=0.5;entryDx=0;entryDy=0;" parent="1" source="fY_PwHqfxWm9hgMFCMMJ-111" target="fY_PwHqfxWm9hgMFCMMJ-113" edge="1">
          <mxGeometry width="50" height="50" relative="1" as="geometry">
            <mxPoint x="160" y="695" as="sourcePoint" />
            <mxPoint x="291" y="600" as="targetPoint" />
          </mxGeometry>
        </mxCell>
        <mxCell id="w9W89zgJOpFOfbTKTyqD-3" value="Бронирование книги" style="ellipse;whiteSpace=wrap;html=1;shadow=0;glass=0;sketch=0;strokeColor=default;strokeWidth=1;fillColor=default;gradientColor=none;" parent="1" vertex="1">
          <mxGeometry x="487" y="830" width="120" height="60" as="geometry" />
        </mxCell>
        <mxCell id="w9W89zgJOpFOfbTKTyqD-4" value="" style="endArrow=none;html=1;strokeWidth=1;curved=1;exitX=1;exitY=0.3333333333333333;exitDx=0;exitDy=0;entryX=0;entryY=0.5;entryDx=0;entryDy=0;exitPerimeter=0;" parent="1" source="fY_PwHqfxWm9hgMFCMMJ-111" target="w9W89zgJOpFOfbTKTyqD-3" edge="1">
          <mxGeometry width="50" height="50" relative="1" as="geometry">
            <mxPoint x="269" y="695" as="sourcePoint" />
            <mxPoint x="400" y="600" as="targetPoint" />
          </mxGeometry>
        </mxCell>
        <mxCell id="w9W89zgJOpFOfbTKTyqD-10" value="Добавить в закладки" style="ellipse;whiteSpace=wrap;html=1;shadow=0;glass=0;sketch=0;strokeColor=default;strokeWidth=1;fillColor=default;gradientColor=none;" parent="1" vertex="1">
          <mxGeometry x="520" y="725" width="120" height="60" as="geometry" />
        </mxCell>
        <mxCell id="w9W89zgJOpFOfbTKTyqD-15" value="&amp;lt;&amp;lt;extend&amp;gt;&amp;gt;" style="rounded=0;orthogonalLoop=1;jettySize=auto;html=1;entryX=0.5;entryY=0;entryDx=0;entryDy=0;dashed=1;exitX=0.5;exitY=1;exitDx=0;exitDy=0;" parent="1" source="l2btpocBM2kwRpMdsqXY-6" target="w9W89zgJOpFOfbTKTyqD-10" edge="1">
          <mxGeometry relative="1" as="geometry">
            <mxPoint x="510" y="570" as="sourcePoint" />
            <mxPoint x="364" y="340" as="targetPoint" />
            <Array as="points" />
          </mxGeometry>
        </mxCell>
        <mxCell id="w9W89zgJOpFOfbTKTyqD-16" value="Просмотр&lt;div&gt;закладок&lt;/div&gt;" style="ellipse;whiteSpace=wrap;html=1;shadow=0;glass=0;sketch=0;strokeColor=default;strokeWidth=1;fillColor=default;gradientColor=none;" parent="1" vertex="1">
          <mxGeometry x="190" y="920" width="120" height="60" as="geometry" />
        </mxCell>
        <mxCell id="w9W89zgJOpFOfbTKTyqD-17" value="&amp;lt;&amp;lt;extend&amp;gt;&amp;gt;" style="rounded=0;orthogonalLoop=1;jettySize=auto;html=1;entryX=0.5;entryY=0;entryDx=0;entryDy=0;dashed=1;exitX=0.5;exitY=1;exitDx=0;exitDy=0;" parent="1" source="fY_PwHqfxWm9hgMFCMMJ-113" target="w9W89zgJOpFOfbTKTyqD-16" edge="1">
          <mxGeometry relative="1" as="geometry">
            <mxPoint x="450" y="810" as="sourcePoint" />
            <mxPoint x="510" y="850" as="targetPoint" />
            <Array as="points" />
          </mxGeometry>
        </mxCell>
        <mxCell id="w9W89zgJOpFOfbTKTyqD-19" value="Просмотр книг на руках" style="ellipse;whiteSpace=wrap;html=1;shadow=0;glass=0;sketch=0;strokeColor=default;strokeWidth=1;fillColor=default;gradientColor=none;" parent="1" vertex="1">
          <mxGeometry x="320" y="930" width="120" height="60" as="geometry" />
        </mxCell>
        <mxCell id="w9W89zgJOpFOfbTKTyqD-21" value="&amp;lt;&amp;lt;extend&amp;gt;&amp;gt;" style="rounded=0;orthogonalLoop=1;jettySize=auto;html=1;entryX=0.5;entryY=0;entryDx=0;entryDy=0;dashed=1;exitX=0.5;exitY=1;exitDx=0;exitDy=0;" parent="1" source="fY_PwHqfxWm9hgMFCMMJ-113" target="w9W89zgJOpFOfbTKTyqD-19" edge="1">
          <mxGeometry relative="1" as="geometry">
            <mxPoint x="380" y="825" as="sourcePoint" />
            <mxPoint x="310" y="860" as="targetPoint" />
            <Array as="points" />
          </mxGeometry>
        </mxCell>
        <mxCell id="w9W89zgJOpFOfbTKTyqD-22" style="rounded=0;orthogonalLoop=1;jettySize=auto;html=1;exitX=1;exitY=0.3333333333333333;exitDx=0;exitDy=0;exitPerimeter=0;entryX=0;entryY=0.5;entryDx=0;entryDy=0;endArrow=none;endFill=0;" parent="1" source="fY_PwHqfxWm9hgMFCMMJ-111" target="w9W89zgJOpFOfbTKTyqD-24" edge="1">
          <mxGeometry relative="1" as="geometry">
            <mxPoint x="240" y="605" as="sourcePoint" />
          </mxGeometry>
        </mxCell>
        <mxCell id="w9W89zgJOpFOfbTKTyqD-24" value="Поиск" style="ellipse;whiteSpace=wrap;html=1;shadow=0;glass=0;sketch=0;strokeColor=default;strokeWidth=1;fillColor=default;gradientColor=none;" parent="1" vertex="1">
          <mxGeometry x="354" y="490" width="120" height="60" as="geometry" />
        </mxCell>
        <mxCell id="w9W89zgJOpFOfbTKTyqD-25" value="&amp;lt;&amp;lt;extend&amp;gt;&amp;gt;" style="rounded=0;orthogonalLoop=1;jettySize=auto;html=1;dashed=1;exitX=0.5;exitY=1;exitDx=0;exitDy=0;entryX=0.5;entryY=0;entryDx=0;entryDy=0;" parent="1" source="w9W89zgJOpFOfbTKTyqD-24" target="w9W89zgJOpFOfbTKTyqD-27" edge="1">
          <mxGeometry relative="1" as="geometry">
            <mxPoint x="600" y="490" as="sourcePoint" />
            <mxPoint x="537" y="570" as="targetPoint" />
            <Array as="points" />
          </mxGeometry>
        </mxCell>
        <mxCell id="w9W89zgJOpFOfbTKTyqD-27" value="Фильтрация результатов" style="ellipse;whiteSpace=wrap;html=1;shadow=0;glass=0;sketch=0;strokeColor=default;strokeWidth=1;fillColor=default;gradientColor=none;" parent="1" vertex="1">
          <mxGeometry x="500" y="605" width="120" height="60" as="geometry" />
        </mxCell>
        <mxCell id="w9W89zgJOpFOfbTKTyqD-28" value="Просмотр книги" style="ellipse;whiteSpace=wrap;html=1;shadow=0;glass=0;sketch=0;strokeColor=default;strokeWidth=1;fillColor=default;gradientColor=none;" parent="1" vertex="1">
          <mxGeometry x="340" y="310" width="120" height="60" as="geometry" />
        </mxCell>
        <mxCell id="w9W89zgJOpFOfbTKTyqD-29" value="" style="endArrow=none;html=1;rounded=1;strokeColor=default;strokeWidth=1;align=center;verticalAlign=middle;fontFamily=Helvetica;fontSize=11;fontColor=default;labelBackgroundColor=default;curved=1;entryX=0;entryY=0.5;entryDx=0;entryDy=0;exitX=1;exitY=0.3333333333333333;exitDx=0;exitDy=0;exitPerimeter=0;" parent="1" source="fY_PwHqfxWm9hgMFCMMJ-110" target="w9W89zgJOpFOfbTKTyqD-28" edge="1">
          <mxGeometry width="50" height="50" relative="1" as="geometry">
            <mxPoint x="370" y="530" as="sourcePoint" />
            <mxPoint x="420" y="480" as="targetPoint" />
          </mxGeometry>
        </mxCell>
        <mxCell id="w9W89zgJOpFOfbTKTyqD-31" value="Редактирование&lt;div&gt;информации&lt;/div&gt;" style="ellipse;whiteSpace=wrap;html=1;shadow=0;glass=0;sketch=0;strokeColor=default;strokeWidth=1;fillColor=default;gradientColor=none;" parent="1" vertex="1">
          <mxGeometry x="400" y="420" width="120" height="60" as="geometry" />
        </mxCell>
        <mxCell id="w9W89zgJOpFOfbTKTyqD-32" value="&amp;lt;&amp;lt;extend&amp;gt;&amp;gt;" style="rounded=0;orthogonalLoop=1;jettySize=auto;html=1;dashed=1;exitX=0.5;exitY=1;exitDx=0;exitDy=0;entryX=0.5;entryY=0;entryDx=0;entryDy=0;" parent="1" source="w9W89zgJOpFOfbTKTyqD-28" target="w9W89zgJOpFOfbTKTyqD-31" edge="1">
          <mxGeometry relative="1" as="geometry">
            <mxPoint x="310" y="420" as="sourcePoint" />
            <mxPoint x="406" y="450" as="targetPoint" />
            <Array as="points" />
          </mxGeometry>
        </mxCell>
        <mxCell id="R7j4GKnbBHEp6xjQfTVR-1" value="" style="endArrow=none;html=1;rounded=0;entryX=0;entryY=0.5;entryDx=0;entryDy=0;exitX=1;exitY=0.3333333333333333;exitDx=0;exitDy=0;exitPerimeter=0;" edge="1" parent="1" source="fY_PwHqfxWm9hgMFCMMJ-110" target="w9W89zgJOpFOfbTKTyqD-24">
          <mxGeometry width="50" height="50" relative="1" as="geometry">
            <mxPoint x="160" y="420" as="sourcePoint" />
            <mxPoint x="400" y="630" as="targetPoint" />
          </mxGeometry>
        </mxCell>
      </root>
    </mxGraphModel>
  </diagram>
</mxfile>
